<?xml version="1.0" encoding="utf-8"?>
<!-- Generator: Adobe Illustrator 26.4.1, SVG Export Plug-In . SVG Version: 6.00 Build 0)  -->
<svg version="1.1" id="Layer_1" xmlns="http://www.w3.org/2000/svg" xmlns:xlink="http://www.w3.org/1999/xlink" x="0px" y="0px"
	 viewBox="0 0 361 364" style="enable-background:new 0 0 361 364;" xml:space="preserve">
<style type="text/css">
	.st0{fill:#FFFFFF;}
	.st1{fill:#D47700;}
	.st2{fill:#FF9F15;}
	.st3{fill:#FFDB55;}
	.st4{fill:#E9AB00;}
	.st5{fill:#FFC62A;}
</style>
<g>
	
		<image style="overflow:visible;opacity:0.75;" width="365" height="373" xlink:href="AB19B72B.png"  transform="matrix(1 0 0 1 5 -1)">
	</image>
	<g>
		<g>
			<circle class="st0" cx="182.1" cy="179.1" r="164.2"/>
			<path class="st1" d="M345.7,179.1c0.2-42.8-19.1-84.4-50.7-112.9C232.7,8.1,131.4,7.4,70.7,67.6C25.7,110.8,8.5,182.4,32.6,241
				c42.8,106.9,181.2,126.4,262.6,51C326.6,263.5,346,221.9,345.7,179.1L345.7,179.1z M347.1,179.1c0.3,63.1-34.4,126.2-92.1,154
				c-98.4,48.3-214.1-17.3-236.9-121.4C0.1,132.2,41.6,52.3,116.5,20.5C231.1-26.5,347.1,57.1,347.1,179.1L347.1,179.1z"/>
		</g>
	</g>
</g>
<g>
	<path class="st2" d="M296,235.2c0,0-2.5-0.1-2.5-0.1c-0.4-6.4-0.8-12.7-2.2-18.9c-0.9-4.6-2.2-9.2-3.7-13.6l-0.8-2.2l-0.4-1.1
		c-1.4-3.2-2.7-6.5-4.3-9.5c-4.1-8.2-9.5-15.9-15.7-22.5c-10.1-11.1-22.9-19.3-36.9-24.6c-1.5-0.5-4.8-1.6-6.3-2
		c-2.1-0.5-4.3-1.1-6.4-1.6c-4.1-0.8-8.8-1.4-13-1.6c-11.6-0.6-23.1,1.4-34,5.3c-21.7,7.7-41.6,19.9-56.6,37.7
		c-8.2,9.4-14.9,19.9-21,31.1l-2.4-0.5c-0.4-6.8,0.4-13.6,1.8-20.3c3.5-16.2,11.7-31.7,23-43.9c23.5-25.8,57.5-33.8,91.2-29.1
		C263,125.6,302.8,178.2,296,235.2L296,235.2z"/>
</g>
<g>
	<path class="st3" d="M76.4,234.2c-0.9-33.6-1.7-67.3-2.5-100.9"/>
	<path class="st4" d="M73.8,133.3c15.6,24.4,17.5,61.1,8.4,88.2c-1.6,4.4-3.3,8.7-5.8,12.8c-2.8-4-4.7-8.1-6.5-12.5
		C59.4,195.1,59.5,158.4,73.8,133.3L73.8,133.3z"/>
</g>
<g>
	<path class="st3" d="M81,234.2c26.6-18.6,53.2-37.3,79.8-56"/>
	<path class="st5" d="M160.8,178.2c-11,25.9-39.4,47.1-66.3,54c-4.4,1.1-8.8,1.9-13.5,2c1.7-4.4,4-8.2,6.5-12
		C103.1,199.2,132.7,179.7,160.8,178.2L160.8,178.2z"/>
</g>
</svg>
