<?xml version="1.0" encoding="utf-8"?>
<!-- Generator: Adobe Illustrator 26.4.1, SVG Export Plug-In . SVG Version: 6.00 Build 0)  -->
<svg version="1.1" id="Layer_1" xmlns="http://www.w3.org/2000/svg" xmlns:xlink="http://www.w3.org/1999/xlink" x="0px" y="0px"
	 viewBox="0 0 361 364" style="enable-background:new 0 0 361 364;" xml:space="preserve">
<style type="text/css">
	.st0{fill:#FFFFFF;}
	.st1{fill:#D47700;}
	.st2{fill:#FF9F15;}
	.st3{fill:#FFDB55;}
	.st4{fill:#E9AB00;}
	.st5{fill:#FFC62A;}
</style>
<g>
	
		<image style="overflow:visible;opacity:0.75;" width="364" height="373" xlink:href="65280B72.png"  transform="matrix(1 0 0 1 5.75 -0.9225)">
	</image>
	<g>
		<g>
			<circle class="st0" cx="178.9" cy="179.1" r="164.2"/>
			<path class="st1" d="M15.3,179.1c-0.4,42.8,19.1,84.4,50.6,113c81.4,75.3,219.8,55.9,262.6-51c24.1-58.6,6.9-130.2-38.1-173.4
				C229.6,7.4,128.3,8.1,66,66.2C34.5,94.7,15.1,136.3,15.3,179.1L15.3,179.1z M13.9,179.1c0-122,116-205.6,230.6-158.5
				c74.9,31.8,116.4,111.7,98.4,191.1C320.1,315.8,204.5,381.4,106,333.1C48.3,305.2,13.6,242.2,13.9,179.1L13.9,179.1z"/>
		</g>
	</g>
</g>
<g>
	<path class="st2" d="M65,235.2c-6.8-57,33-109.6,90.2-117.6c33.8-4.7,67.7,3.3,91.2,29.1c11.3,12.2,19.5,27.7,23,43.9
		c1.4,6.7,2.2,13.5,1.8,20.3l-2.4,0.5c-6.1-11.2-12.8-21.7-21-31.1c-14.9-17.8-34.9-30-56.6-37.7c-10.9-3.9-22.4-5.9-34-5.3
		c-4.2,0.2-8.8,0.9-13,1.6c-2.1,0.5-4.3,1.1-6.4,1.6c-1.5,0.4-4.8,1.6-6.3,2c-14,5.3-26.8,13.5-36.9,24.6
		c-6.3,6.6-11.6,14.3-15.7,22.5c-1.7,3.1-2.9,6.3-4.3,9.5l-0.4,1.1l-0.8,2.2c-1.6,4.4-2.9,9-3.7,13.6c-1.4,6.2-1.9,12.5-2.2,18.9
		C67.5,235.1,65,235.2,65,235.2L65,235.2z"/>
</g>
<g>
	<path class="st3" d="M287.2,133.3c-0.9,33.6-1.7,67.3-2.5,100.9"/>
	<path class="st4" d="M287.2,133.3c14.3,25.2,14.4,61.9,3.9,88.5c-1.8,4.3-3.7,8.5-6.5,12.5c-2.5-4.1-4.3-8.4-5.8-12.8
		C269.7,194.3,271.6,157.7,287.2,133.3L287.2,133.3z"/>
</g>
<g>
	<path class="st3" d="M200.2,178.2c26.6,18.7,53.2,37.3,79.8,56"/>
	<path class="st5" d="M200.2,178.2c28.1,1.5,57.7,21,73.4,43.9c2.5,3.8,4.8,7.6,6.5,12c-4.7-0.1-9.1-0.9-13.5-2
		C239.6,225.3,211.2,204.2,200.2,178.2L200.2,178.2z"/>
</g>
</svg>
